<svg width="40" height="40" viewBox="0 0 40 40" fill="none" xmlns="http://www.w3.org/2000/svg">
<path d="M0 20C0 8.95431 8.95431 0 20 0C31.0457 0 40 8.95431 40 20C40 31.0457 31.0457 40 20 40C8.95431 40 0 31.0457 0 20Z" fill="white"/>
<g clip-path="url(#clip0_195_5022)">
<path d="M11 19.5C11 20.6819 11.2328 21.8522 11.6851 22.9442C12.1374 24.0361 12.8003 25.0282 13.636 25.864C14.4718 26.6997 15.4639 27.3626 16.5558 27.8149C17.6478 28.2672 18.8181 28.5 20 28.5C21.1819 28.5 22.3522 28.2672 23.4442 27.8149C24.5361 27.3626 25.5282 26.6997 26.364 25.864C27.1997 25.0282 27.8626 24.0361 28.3149 22.9442C28.7672 21.8522 29 20.6819 29 19.5C29 18.3181 28.7672 17.1478 28.3149 16.0558C27.8626 14.9639 27.1997 13.9718 26.364 13.136C25.5282 12.3003 24.5361 11.6374 23.4442 11.1851C22.3522 10.7328 21.1819 10.5 20 10.5C18.8181 10.5 17.6478 10.7328 16.5558 11.1851C15.4639 11.6374 14.4718 12.3003 13.636 13.136C12.8003 13.9718 12.1374 14.9639 11.6851 16.0558C11.2328 17.1478 11 18.3181 11 19.5Z" stroke="#90C585" stroke-width="2" stroke-linecap="round" stroke-linejoin="round"/>
<path d="M17 19.5L19 21.5L23 17.5" stroke="#90C585" stroke-width="2" stroke-linecap="round" stroke-linejoin="round"/>
</g>
<defs>
<clipPath id="clip0_195_5022">
<rect width="24" height="24" fill="white" transform="translate(8 8)"/>
</clipPath>
</defs>
</svg>
